<svg
   version="1.1"
   id="svg2"
   width="1995.88"
   height="361.33334"
   viewBox="0 0 1995.88 361.33334"
   sodipodi:docname="META_CI(bk,wh)_outline.ai"
   xmlns:inkscape="http://www.inkscape.org/namespaces/inkscape"
   xmlns:sodipodi="http://sodipodi.sourceforge.net/DTD/sodipodi-0.dtd"
   xmlns="http://www.w3.org/2000/svg"
   xmlns:svg="http://www.w3.org/2000/svg">
  <defs
     id="defs6">
    <clipPath
       clipPathUnits="userSpaceOnUse"
       id="clipPath16">
      <path
         d="M 0,271 H 1496.912 V 0 H 0 Z"
         id="path14" />
    </clipPath>
  </defs>
  <sodipodi:namedview
     id="namedview4"
     pagecolor="#ffffff"
     bordercolor="#000000"
     borderopacity="0.25"
     inkscape:showpageshadow="2"
     inkscape:pageopacity="0.0"
     inkscape:pagecheckerboard="0"
     inkscape:deskcolor="#d1d1d1" />
  <g
     id="g8"
     inkscape:groupmode="layer"
     inkscape:label="META_CI(bk,wh)_outline"
     transform="matrix(1.3333333,0,0,-1.3333333,0,361.33333)">
    <g
       id="g10">
      <g
         id="g12"
         clip-path="url(#clipPath16)">
        <g
           id="g18"
           transform="translate(318.1027,118.197)">
          <path
             d="m 0,0 c -2.159,-1.819 -4.401,-3.552 -7.028,-4.903 -1.262,-5.384 -4.043,-9.248 -7.027,-12.91 1.648,0.013 2.722,-0.546 4.085,-0.818 -1.191,-1.857 -3.078,-3.023 -4.575,-4.576 -7.836,-0.858 -13.738,-5.092 -20.265,-8.171 -12.726,-6.003 -30.456,-7.283 -42.655,-14.054 -6.098,-3.386 -10.436,-8.094 -14.381,-13.892 4.338,6.93 9.086,12.299 15.199,16.997 6.2,4.764 13.721,7.208 21.734,10.295 7.549,2.907 15.176,6.136 21.737,10.296 6.445,4.086 12.321,9.496 14.545,17.487 -16.227,1.079 -18.762,-14.391 -35.464,-13.926 -0.292,-0.047 -0.335,0.129 -0.163,0.129 h 1.799 c 8.945,1.471 12.42,9.105 17.321,14.416 5.907,6.398 13.627,10.231 26.639,9.66 1.002,-0.045 2.2,-0.447 3.431,-0.319 2.108,0.22 3.31,1.709 5.395,2.293 C 1.096,5.473 0.832,2.226 0,0 m -91.355,-65.371 c 1.643,3.273 3.81,7.595 7.19,9.479 3.029,1.688 6.743,2.913 10.295,4.412 9.909,4.182 21.432,8.846 30.889,13.238 -14.343,-10.172 -33.521,-16.924 -48.374,-27.129 m 36.607,8.989 c -1.961,-4.189 -5.027,-7.752 -7.845,-11.44 -8.258,-10.807 -16.65,-21.827 -35.463,-22.226 0.984,3.224 0.173,6.173 1.307,8.824 0.539,1.26 3.178,3.023 4.412,4.087 4.634,3.993 9.256,7.635 11.768,13.401 6.655,2.768 12.183,6.665 18.793,9.478 2.348,-0.703 4.537,-1.565 7.028,-2.124 m -38.406,-12.257 c 2.726,0.924 5.547,1.753 8.009,2.941 -3.28,-3.53 -7.859,-7.178 -10.788,-11.602 -0.034,3.194 1.764,5.971 2.779,8.661 m -5.882,63.245 c -2.054,-0.589 -4.342,-0.432 -6.538,-1.143 -2.661,-0.862 -4.661,-3.694 -6.374,-5.72 -0.05,-0.06 -0.443,-0.643 -0.653,-0.327 3.077,4.309 6.304,7.901 12.257,9.479 5.559,1.473 11.716,2.57 16.179,5.557 -4.043,-2.757 -9.213,-6.219 -14.871,-7.846 m -22.717,-29.252 c -3.262,-3.263 -6.659,-6.229 -10.46,-8.989 6.721,6.246 11.76,14.411 14.055,25.658 0.754,3.694 1.797,6.709 3.432,9.806 5.317,10.068 9.997,20.71 15.853,30.724 0.851,1.456 1.557,3.289 2.451,4.085 1.392,1.241 4.54,2.263 6.701,3.269 15.559,7.239 31.08,14.937 46.413,22.226 0.949,3.191 1.315,6.932 1.437,10.949 -0.021,0.405 0.13,0.278 0.13,0 v -0.816 c -0.589,-6.806 -0.825,-12.926 -3.562,-17.488 -2.592,-4.32 -6.867,-7.108 -9.462,-11.603 -2.652,-4.594 -4.254,-9.705 -6.855,-14.218 -2.541,-4.405 -5.656,-7.869 -10.128,-10.786 5.124,3.35 8.994,9.454 10.787,16.833 1.375,5.661 2.652,11.936 6.375,15.689 4.027,4.06 9.281,5.055 11.114,10.95 -6.311,-3.475 -11.766,-7.611 -17.813,-12.258 -1.912,-1.469 -4.393,-2.942 -5.393,-4.738 -0.579,-1.041 -0.714,-2.535 -1.145,-3.759 -0.416,-1.183 -1.011,-2.318 -1.47,-3.433 -0.913,-2.215 -1.499,-5.139 -2.941,-6.863 -1.257,-1.503 -4.762,-3.037 -7.027,-4.249 -5.334,-2.854 -10.006,-4.487 -15.527,-7.028 -2.616,-1.204 -5.541,-2.277 -7.518,-3.595 -3.294,-2.198 -4.509,-5.706 -7.517,-8.499 2.88,2.133 5.647,4.378 9.153,5.884 -3.876,-2.946 -7.507,-5.588 -10.297,-9.315 -2.993,-3.996 -4.196,-8.559 -4.577,-15.036 -0.417,-7.123 -2.419,-9.611 -6.209,-13.4 m 0.163,-27.456 c -1.666,-8.411 -5.724,-14.431 -10.95,-19.285 -2.688,1 -4.269,-0.768 -4.412,-3.267 -3.337,-1.756 -10.394,-1.782 -13.728,0 -0.406,1.781 -0.577,3.328 -2.288,3.594 -0.566,0.089 -1.244,-0.456 -1.961,-0.327 -1.368,0.248 -2.764,2.664 -3.758,3.923 -3.357,4.245 -6.255,9.01 -7.355,15.198 -0.723,0.121 -1.843,-0.77 -2.942,-0.817 2.228,3.417 5.191,7.048 8.172,10.296 2.254,2.456 4.276,3.829 8.687,4.249 -0.49,7.525 0.942,17.243 -1.117,24.188 v 0.327 c 0,0.712 0.255,0.027 0.136,-0.327 1.5,-4.866 1.811,-10.701 2.276,-16.834 0.227,-3.001 1.245,-6.645 3.202,-7.681 0.208,-0.109 0.27,-0.207 0.564,-0.295 v -1.011 c -0.882,-0.041 -1.818,-0.096 -2.695,-0.164 -5.912,-0.46 -10.355,-2.453 -10.429,-7.355 2.865,3.544 9.829,4.263 16.358,4.249 6.566,-0.014 13.545,-0.774 16.513,-4.249 -0.562,0.902 -0.425,2.675 -1.077,3.759 -1.482,2.457 -6.608,3.482 -11.904,3.753 v 1.324 c 0.884,0.556 1.804,1.344 2.264,2.277 0.669,1.354 1.137,3.456 1.276,5.393 0.445,6.101 0.957,13.451 2.437,17.161 -1.69,-6.56 -0.762,-16.764 -1.151,-24.351 1.902,-0.941 3.869,-0.658 5.552,-1.471 1.972,-0.953 4.577,-4.449 6.045,-6.21 1.992,-2.391 3.765,-4.766 5.227,-7.028 -1.131,0.175 -1.988,0.628 -2.942,0.981 m -50.499,42.327 c -0.828,11.809 -7.272,17.659 -14.871,22.716 3.209,-1.04 6.351,-3.563 8.988,-5.72 -1.01,1.653 -2.252,2.868 -3.432,4.25 -1.151,1.348 -2.26,3.217 -3.759,4.249 -0.972,0.669 -2.564,1.165 -3.922,1.798 -6.412,2.982 -12.803,5.356 -19.284,8.825 -2.346,1.255 -5.684,2.643 -7.027,4.249 -1.397,1.668 -2.069,4.662 -2.942,6.863 -0.954,2.404 -1.578,5.087 -2.615,7.028 -0.806,1.509 -3.233,3.471 -5.066,4.902 -5.45,4.257 -12.274,9.175 -17.814,12.421 -0.081,0.048 -0.239,-0.036 -0.327,0 1.767,-6.055 7.137,-7.136 11.113,-11.113 3.96,-3.959 4.874,-10.244 6.375,-16.016 1.491,-5.744 3.986,-10.526 8.007,-14.218 -8.198,4.975 -9.709,16.211 -15.036,24.188 -2.5,3.744 -6.629,6.443 -8.988,10.785 -2.37,4.365 -2.702,10.041 -3.269,16.343 -0.121,0.956 0.192,2.398 0.164,0.654 0.241,-3.627 0.489,-7.246 1.471,-10.132 16.178,-8.036 32.973,-16.114 49.845,-24.024 3.303,-1.549 3.999,-2.507 5.884,-5.72 5.748,-9.801 10.369,-20.651 15.688,-30.724 1.636,-3.098 2.712,-6.132 3.433,-9.806 2.118,-10.818 7.092,-19.465 14.218,-25.495 -2.764,1.603 -5.297,3.809 -7.844,6.048 -2.262,1.985 -5.214,4.481 -6.865,7.19 -1.72,2.821 -1.858,6.657 -2.125,10.459 m -9.805,13.238 c -1.932,0.668 -4.099,0.342 -6.047,0.817 -5.706,1.39 -10.079,4.93 -14.532,7.394 -0.395,0.198 -0.784,0.4 -1.158,0.614 0.388,-0.195 0.773,-0.4 1.158,-0.614 4.357,-2.176 9.968,-3.396 15.185,-4.779 5.966,-1.582 9.497,-5.241 12.257,-9.806 -1.974,2.09 -3.83,5.326 -6.863,6.374 m -43.308,-61.285 c -2.788,3.643 -5.63,7.378 -7.681,11.44 2.43,0.566 4.647,1.345 6.864,2.124 6.785,-2.694 12.224,-6.733 18.957,-9.478 3.536,-7.631 10.33,-12.007 16.18,-17.324 0.419,-3.012 0.9,-5.963 1.306,-8.988 -18.689,0.497 -27.229,11.252 -35.626,22.226 m 30.724,-0.817 c 1.137,-2.73 2.508,-5.227 2.942,-8.661 -3.339,4.178 -7.02,8.015 -11.113,11.439 2.397,-0.599 5.388,-2.019 8.171,-2.778 m -50.335,30.234 c 9.451,-3.947 20.833,-8.763 31.051,-13.075 3.659,-1.544 7.879,-2.757 10.786,-4.739 3.178,-2.168 4.887,-5.882 6.863,-8.988 -14.991,9.522 -33.503,16.94 -48.7,26.802 m 26.311,48.538 c 0.672,-0.094 1.665,-1.276 2.615,-1.635 -0.773,-0.007 -1.856,1.084 -2.615,1.635 m -54.257,-33.34 c -1.749,0.675 -3.838,3.233 -4.74,4.576 1.108,0.364 2.199,0.743 3.595,0.818 -2.218,3.609 -5.56,7.512 -6.7,12.747 -2.42,1.61 -4.912,3.15 -7.027,5.066 -0.836,2.23 -1.096,5.477 -0.327,8.008 2.029,-0.535 3.272,-2.039 5.229,-2.288 1.375,-0.174 2.533,0.286 3.433,0.327 12.978,0.589 20.535,-3.134 26.638,-9.643 5.448,-5.808 8.492,-13.587 18.957,-14.381 1.046,-0.181 -2.536,-0.25 -3.431,-0.163 -6.169,0.596 -10.798,4.637 -15.199,7.844 -4.547,3.312 -9.088,6.764 -16.506,6.21 1.717,-8.196 7.94,-13.407 14.381,-17.487 6.516,-4.124 14.002,-7.567 21.573,-10.459 8.078,-3.085 15.638,-5.485 21.898,-10.295 6.113,-4.697 10.749,-10.051 15.199,-16.834 -4.117,6.383 -10.164,11.856 -17.976,15.363 -9.072,4.072 -20.144,6.157 -30.725,9.152 -8.247,2.334 -14.841,7.556 -23.043,10.132 -1.712,0.538 -3.562,0.664 -5.229,1.307 m 26.638,88.74 c 0.29,0.437 0.12,-0.956 0.163,-1.307 -0.29,-0.436 -0.118,0.958 -0.163,1.307 m 7.561,8.009 V 70.6 c 0.589,-5.789 0.552,-10.479 3.493,-13.891 1.771,-2.057 4.902,-3.226 7.873,-4.249 8.024,-2.761 15.587,-6.348 22.733,-10.133 0.417,-0.222 1.637,-0.703 1.314,-0.98 -6.592,3.397 -16.152,6.054 -25.328,8.171 -2.092,0.482 -6.623,1.348 -7.842,2.779 -0.851,0.999 -0.853,3.364 -1.142,4.902 -0.916,4.861 -1.49,10.403 -1.204,16.506 -0.101,1.636 0.397,1.251 0.103,-0.163 m 9.135,9.51 c 3.224,-3.597 6.49,-8.175 10.106,-12.615 4.197,-5.152 9.543,-10.715 18.957,-9.315 -1.767,2.579 -2.975,5.541 -3.432,9.315 -1.391,11.51 -2.051,25.28 -2.777,37.424 2.527,-15.996 2.974,-33.615 11.276,-43.961 2.091,-2.606 4.856,-4.344 7.354,-6.537 7.307,-6.417 11.923,-15.768 15.689,-25.985 -4.119,8.606 -8.152,16.661 -16.507,21.245 -3.737,2.052 -9.203,3.764 -14.054,4.903 -4.935,1.159 -11.335,1.397 -14.708,4.086 -6.143,4.895 -6.993,15.232 -11.904,21.44 -0.609,0.68 -1.216,1.328 -1.823,1.93 0.668,-0.581 1.27,-1.23 1.823,-1.93 M -176.41,12.42 c -3.502,5.641 -3.425,13.851 -4.459,22.389 1.427,-6.508 1.596,-12.633 4.391,-17.322 1.105,-1.856 2.67,-3.185 3.746,-4.903 3.342,-5.336 5.18,-11.658 5.152,-20.919 0.046,-0.292 -0.078,-0.335 -0.078,-0.163 v 2.615 c -0.294,8.123 -5.337,12.802 -8.752,18.303 m 9.223,62.756 c -2.67,-6.847 -1.732,-16.566 -0.163,-23.37 1.592,-6.894 3.968,-14.202 8.335,-17.977 1.244,-1.074 2.911,-1.663 4.086,-2.778 4.861,-4.614 6.181,-11.389 7.355,-19.448 -1.222,3.569 -1.811,7.631 -3.597,10.787 -2.159,3.819 -5.877,5.594 -9.478,8.824 -8.997,8.073 -9.821,25.194 -13.564,37.752 -1.928,6.47 -6.684,11.006 -11.441,14.218 -5.229,3.532 -11.141,5.938 -17.812,7.844 14.322,-2.401 25.716,-9.147 36.279,-15.852 m 34.485,-44.125 c 1.156,1.098 2.706,1.62 3.922,2.615 4.37,3.573 7.009,11.16 8.497,17.977 1.474,6.751 2.607,16.592 -0.162,23.369 10.325,7.054 21.657,13.098 35.953,16.18 0.404,0.021 0.276,-0.2 0,-0.164 -12.488,-4.462 -24.95,-9.112 -28.926,-22.226 -3.818,-12.593 -4.706,-29.639 -13.565,-37.588 -3.31,-2.97 -7.27,-4.781 -9.478,-8.661 -1.736,-3.052 -2.332,-6.852 -3.433,-10.95 0.781,7.781 2.377,14.879 7.192,19.448 m 12.909,-39.386 c 0.047,-0.292 -0.154,-0.335 -0.163,-0.163 -0.075,9.162 1.6,15.451 5.067,20.918 1.077,1.7 2.634,3.059 3.759,4.903 2.884,4.734 3.064,11.115 4.248,17.486 -0.734,-6.057 -0.392,-12.529 -2.123,-17.813 -2.836,-8.642 -11.681,-13.269 -10.788,-25.331 m 36.445,99.037 c -0.081,0.406 0.194,0.601 -0.654,0.49 0.068,0.368 0.897,-0.024 0.818,0.49 0.62,5.427 1.428,10.666 1.961,16.179 -0.025,-7.774 -0.814,-16.607 -1.471,-24.84 -0.656,-8.228 -0.525,-16.821 -4.74,-21.899 9.332,-1.662 15.394,4.599 19.611,9.805 4.021,4.963 7.584,10.032 11.277,14.219 -2.535,-3.407 -5.328,-8.198 -7.353,-13.074 -1.572,-3.78 -3.212,-8.07 -6.211,-10.46 -3.365,-2.683 -9.812,-2.986 -14.708,-4.086 -5.032,-1.131 -9.937,-2.749 -13.893,-4.903 -8.336,-4.54 -12.214,-11.909 -16.505,-20.919 0.021,-0.404 -0.2,-0.277 -0.163,0 4.232,10.704 8.935,20.521 17.976,27.62 7.617,5.979 11.168,14.336 13.238,26.638 0.248,1.477 1.024,3.698 0.817,4.74 m 30.609,-34.156 c 3.049,3.356 3.055,8.431 3.643,14.054 v 2.942 c -0.294,1.164 0.176,2.285 0.116,0.49 0.308,-5.815 -0.229,-11.667 -1.168,-16.669 -0.287,-1.522 -0.217,-3.853 -0.993,-4.903 -1.218,-1.651 -5.942,-2.398 -8.341,-2.942 -9.073,-2.057 -18.426,-5.098 -25.171,-8.008 6.614,3.605 16.07,7.964 24.538,10.95 2.706,0.955 5.776,2.323 7.376,4.086 m 11.064,8.987 c 0.29,0.437 0.119,-0.956 0.165,-1.307 -0.29,-0.436 -0.12,0.958 -0.165,1.307 M 1.961,9.479 c -1.714,16.862 -13.357,23.795 -14.219,41.51 4.906,7.788 5.927,20.33 8.008,30.397 -2.431,-5.854 -4.52,-11.512 -7.028,-17.16 -0.812,-1.83 -2.306,-3.615 -2.777,-5.393 -0.798,-3.005 0.297,-5.907 0,-9.152 -0.9,-1.169 -2.025,-2.115 -3.595,-2.614 C -16,32.024 -5.35,25.162 -4.904,9.642 -8.053,24.523 -22.99,27.617 -24.841,43.798 c -7.136,-3.246 -15.386,-6.275 -18.958,-13.564 -0.964,-1.967 -1.361,-4.063 -2.287,-5.884 -2.736,-5.366 -6.851,-9.654 -11.277,-13.401 3.42,3.622 6.08,7.543 7.844,13.238 1.766,5.694 1.78,11.853 4.577,16.506 2.667,4.442 7.639,5.715 12.42,7.845 2.876,1.28 5.655,2.643 8.661,3.922 2.503,5.233 4.662,10.809 4.903,18.303 -5.202,-2.696 -11.658,-5.556 -17.487,-8.171 5.607,3.659 9.648,8.622 11.44,16.016 0.898,3.698 1.201,7.776 1.799,11.93 0.564,3.931 1.261,7.936 1.961,11.767 0.682,3.738 1.589,7.661 2.123,11.604 0.565,4.17 0.49,8.525 0.817,12.91 0.651,8.692 1.082,17.567 1.636,25.984 -2.092,-2.046 -3.563,-4.614 -5.231,-7.027 -6.84,-9.894 -13.749,-20.062 -20.592,-29.743 -3.517,-4.977 -7.626,-9.215 -10.295,-14.872 -1.339,-2.838 -2.143,-6.098 -3.922,-8.661 -2.801,-4.033 -7.44,-6.845 -10.95,-10.133 2.6,4.277 6.747,7.165 8.498,12.42 1.034,3.102 1.676,6.862 2.615,10.133 0.937,3.264 1.564,7.255 3.432,9.478 1.26,1.501 3.311,2.684 4.903,4.087 11.337,9.982 21.089,21.579 30.071,33.175 -14.261,-12.382 -35.268,-20.953 -62.92,-18.304 -1.566,-1.267 -3.904,-3.175 -5.719,-4.739 -4.397,-14.988 -13.291,-24.815 -23.371,-33.993 -9.904,-9.018 -20.266,-18.316 -23.369,-33.993 0.787,7.239 2.684,13.099 5.229,18.468 2.563,5.41 6.275,9.621 9.969,14.054 7.325,8.79 14.438,17.481 19.285,28.763 -4.178,-1.707 -8.437,-3.331 -13.074,-4.575 -5.301,-16.709 -23.026,-20.992 -27.948,-38.08 1.976,17.202 16.485,21.867 21.084,36.445 -2.398,-0.38 -4.658,-0.9 -7.192,-1.144 -1.598,-2.978 -3.334,-5.817 -6.701,-7.027 1.816,1.453 2.577,3.96 3.269,6.536 -8.793,-0.922 -19.637,-0.908 -28.435,0 0.557,-2.547 1.807,-5.272 3.104,-6.536 -3.182,1.338 -4.988,4.054 -6.537,7.027 -2.575,0.203 -4.79,0.767 -7.192,1.144 4.49,-14.524 19.434,-19.463 20.92,-36.445 -4.679,17.276 -22.58,21.327 -27.782,38.08 -4.587,1.132 -9.138,3.172 -13.074,4.412 4.961,-11.155 11.972,-19.826 19.284,-28.6 3.624,-4.35 7.424,-8.546 9.969,-13.892 2.543,-5.341 4.482,-11.305 5.066,-18.63 -2.866,15.811 -13.355,25.021 -23.207,33.993 -10.044,9.146 -19.142,18.926 -23.206,34.156 -2.268,1.17 -4.167,3.562 -6.047,4.576 -20.121,-2.215 -38.168,2.707 -50.826,9.806 -4.476,2.51 -8.264,5.643 -12.094,8.334 9.394,-11.389 19.107,-23.227 30.072,-33.011 1.66,-1.483 3.758,-2.53 5.066,-4.087 1.491,-1.775 2.456,-5.584 3.269,-8.334 0.931,-3.157 1.732,-6.464 2.45,-9.316 1.634,-6.488 5.772,-9.833 8.662,-14.381 -3.413,3.411 -7.998,6.115 -10.786,10.296 -1.743,2.614 -2.777,5.705 -4.086,8.498 -1.314,2.803 -2.728,5.361 -4.739,7.844 -3.815,4.71 -7.186,9.581 -10.623,14.545 -6.41,9.261 -12.972,18.753 -19.285,27.783 -0.308,0.442 -0.461,1.485 -1.307,1.308 0.578,-8.402 1.014,-17.271 1.634,-25.986 0.312,-4.378 0.206,-8.808 0.818,-12.91 0.595,-3.998 1.622,-7.848 2.288,-11.604 0.66,-3.721 1.201,-7.651 1.798,-11.603 0.622,-4.129 0.868,-8.383 1.797,-12.093 1.858,-7.423 6.029,-12.408 11.767,-16.016 -5.028,2.458 -11.152,4.771 -15.852,7.354 -0.617,0.339 -1.25,1.08 -1.961,0.817 0.252,-7.276 2.362,-12.783 4.902,-18.14 3.017,-1.284 5.762,-2.645 8.662,-3.922 2.832,-1.248 6.148,-2.053 8.825,-3.76 5.109,-3.258 5.991,-10.806 7.354,-17.65 1.402,-7.033 4.956,-12.029 8.498,-16.179 -4.313,3.884 -8.448,8.219 -11.113,13.401 -0.945,1.84 -1.305,3.914 -2.288,5.884 -3.627,7.27 -11.779,10.334 -18.957,13.564 -1.851,-15.799 -16.084,-19.216 -19.775,-33.176 0.945,15.398 10.988,21.697 12.584,36.445 -1.482,0.736 -3.19,1.303 -3.595,2.778 -0.298,1.085 0.117,2.383 0.163,3.432 0.077,1.75 0.282,3.91 -0.163,5.556 -0.453,1.672 -1.817,3.614 -2.615,5.393 -2.594,5.786 -4.887,11.599 -7.355,17.16 2.007,-7.707 2.532,-16.444 5.067,-24.023 0.68,-2.035 2.873,-4.975 3.105,-6.7 0.218,-1.619 -0.441,-4.245 -0.817,-6.048 -1.193,-5.721 -3.675,-10.884 -6.047,-14.871 -3.79,-6.371 -6.07,-12.568 -7.518,-20.265 -4.19,2.785 -7.705,6.008 -10.786,9.969 -2.323,2.986 -4.024,6.608 -5.556,10.132 -0.402,0.923 -0.223,0.597 0,-0.327 2.413,-10.038 7.831,-18.839 13.728,-25.331 0.83,-0.914 2.009,-1.574 2.614,-2.615 0.562,-0.965 0.979,-2.41 1.471,-3.595 2.595,-6.247 4.442,-12.842 8.662,-17.159 -1.64,-0.921 -3.675,-2.318 -4.25,-3.76 2.507,0.381 5.72,0.055 8.499,0.163 13.624,-10.29 26.546,-21.282 43.308,-28.436 -6.013,0.9 -10.167,4.78 -17.486,4.74 -6.263,-0.035 -12.299,-2.229 -15.363,-5.72 2.469,1.564 5.288,2.606 8.988,2.615 7.565,0.017 12.554,-5.638 16.67,-10.459 4.335,-5.078 8.404,-10.364 12.747,-14.709 9.558,-9.558 19.376,-18.044 37.262,-17.325 0.284,-1.459 0.537,-2.948 0.654,-4.574 1.844,2.839 2.899,6.47 4.576,9.478 8.405,-9.462 20.712,-15.023 37.424,-16.179 -5.868,-0.288 -10.584,-1.726 -16.18,-2.288 2.747,-0.85 6.307,-2.982 9.97,-3.431 2.644,-0.324 6.031,0 9.151,0 3.185,0 6.605,-0.384 9.153,0 3.353,0.504 7.016,2.639 9.805,3.431 -5.634,0.632 -10.722,1.806 -16.343,2.451 17.108,0.761 28.898,6.839 37.589,16.016 1.402,-3.228 2.662,-6.598 4.413,-9.478 0.197,1.599 0.239,3.356 0.817,4.574 10.223,-0.76 17.876,2.294 24.349,6.539 10.859,7.12 17.693,16.571 26.149,26.148 4.111,4.655 8.646,9.887 16.343,9.806 3.598,-0.039 6.483,-1.411 8.825,-2.452 -3.921,3.449 -9.498,5.691 -16.18,5.557 -6.891,-0.138 -11.205,-4.096 -16.833,-4.576 8.526,3.528 15.682,7.724 22.88,12.911 5.009,3.608 10.391,7.419 15.526,11.439 1.595,1.249 3.563,3.569 5.065,3.922 2.741,0.646 6.162,-0.367 8.499,-0.163 -1.076,1.702 -2.837,2.719 -4.412,3.923 C -3.035,-13.962 -0.73,-5.97 2.124,1.471 9.833,8.797 15.798,18.737 18.631,30.398 15.739,20.759 9.498,14.47 1.961,9.479"
             style="fill:#ffffff;fill-opacity:1;fill-rule:evenodd;stroke:none"
             id="path20" />
        </g>
        <g
           id="g22"
           transform="translate(561.126,178.4648)">
          <path
             d="m 0,0 -57.046,-125.413 h -11.321 l -56.158,121.64 -1.554,-89.233 c 0,-3.995 0.222,-7.29 0.666,-9.878 0.443,-2.591 1.294,-4.661 2.553,-6.215 1.255,-1.553 3.069,-2.702 5.438,-3.44 2.365,-0.742 5.473,-1.187 9.322,-1.332 v -10.211 c -3.995,0.149 -8.767,0.223 -14.317,0.223 h -17.092 c -5.846,0 -11.58,-0.036 -17.202,-0.112 -5.626,-0.073 -10.509,-0.183 -14.65,-0.333 v 10.655 c 5.472,0.146 9.951,0.444 13.429,0.888 3.475,0.444 6.215,1.405 8.213,2.885 1.997,1.478 3.403,3.587 4.217,6.326 0.812,2.737 1.367,6.473 1.665,11.21 l 2.664,107.656 c 0,6.805 -1.443,11.466 -4.329,13.984 -2.885,2.514 -8.323,3.773 -16.314,3.773 V 43.95 c 2.958,-0.298 6.361,-0.482 10.211,-0.554 3.845,-0.077 7.657,-0.112 11.431,-0.112 3.774,0 7.286,0.035 10.543,0.112 3.254,0.072 5.917,0.256 7.991,0.554 L -59.266,-91.229 1.554,43.729 c 2.219,-0.299 5.251,-0.483 9.101,-0.556 3.846,-0.076 7.842,-0.076 11.987,0 4.14,0.073 8.136,0.223 11.986,0.444 3.846,0.222 6.881,0.479 9.101,0.778 V 33.073 c -4.294,0 -7.735,-0.298 -10.322,-0.887 -2.591,-0.593 -4.662,-1.592 -6.216,-2.997 -1.553,-1.408 -2.59,-3.218 -3.107,-5.438 -0.521,-2.22 -0.776,-4.96 -0.776,-8.213 L 25.749,-92.34 c 0.146,-4.737 0.517,-8.473 1.109,-11.21 0.59,-2.739 1.777,-4.848 3.552,-6.326 1.777,-1.48 4.29,-2.479 7.547,-2.996 3.254,-0.521 7.77,-0.777 13.54,-0.777 v -10.433 c -3.995,0 -9.36,0.038 -16.093,0.111 -6.735,0.076 -13.727,0.112 -20.975,0.112 -7.253,0 -14.244,-0.036 -20.977,-0.112 -6.735,-0.073 -12.024,-0.111 -15.871,-0.111 v 10.433 c 5.179,0 9.357,0.222 12.542,0.666 3.18,0.444 5.622,1.443 7.324,2.997 1.7,1.553 2.81,3.697 3.33,6.436 0.517,2.737 0.777,6.473 0.777,11.21 z"
             style="fill:#ffffff;fill-opacity:1;fill-rule:nonzero;stroke:none"
             id="path24" />
        </g>
        <g
           id="g26"
           transform="translate(669.4482,209.9844)">
          <path
             d="m 0,0 v -61.93 h 28.634 c 2.365,0 4.363,0.222 5.993,0.666 1.627,0.445 2.92,1.405 3.885,2.886 0.961,1.478 1.626,3.514 1.997,6.105 0.368,2.586 0.555,6.103 0.555,10.543 h 13.54 v -56.603 h -13.54 c 0,5.029 -0.149,9.062 -0.444,12.098 -0.298,3.031 -0.888,5.289 -1.775,6.77 -0.888,1.478 -2.148,2.442 -3.774,2.886 -1.631,0.443 -3.85,0.665 -6.659,0.665 H 0 v -49.055 c 0,-4.294 0.256,-7.696 0.776,-10.211 0.517,-2.518 1.589,-4.405 3.219,-5.66 1.627,-1.259 3.957,-2.074 6.992,-2.442 3.032,-0.371 7.138,-0.555 12.32,-0.555 h 15.759 c 5.328,0 9.729,0.368 13.207,1.11 3.476,0.739 6.438,2.182 8.879,4.329 2.442,2.143 4.513,5.067 6.216,8.767 1.699,3.697 3.513,8.508 5.438,14.429 h 14.428 c -2.074,-6.514 -4.144,-13.246 -6.215,-20.199 -2.074,-6.958 -3.85,-13.69 -5.328,-20.201 -9.766,0.15 -19.866,0.261 -30.298,0.333 -10.433,0.077 -20.866,0.112 -31.298,0.112 -10.433,0 -20.754,-0.035 -30.965,-0.112 -10.211,-0.072 -19.978,-0.183 -29.3,-0.333 v 10.433 c 4.883,0 8.73,0.223 11.542,0.666 2.81,0.444 4.994,1.405 6.548,2.886 1.554,1.477 2.553,3.552 2.997,6.216 0.443,2.663 0.666,6.214 0.666,10.654 v 107.212 c 0,4.439 -0.223,7.914 -0.666,10.432 -0.444,2.515 -1.408,4.402 -2.886,5.661 -1.481,1.255 -3.662,2.032 -6.548,2.331 -2.885,0.294 -6.77,0.443 -11.653,0.443 v 10.433 c 9.173,-0.15 18.68,-0.26 28.523,-0.333 9.839,-0.077 19.755,-0.111 29.744,-0.111 9.989,0 19.79,0.034 29.411,0.111 9.618,0.073 18.792,0.183 27.524,0.333 V -28.19 H 55.714 c -0.593,6.361 -1.297,11.431 -2.109,15.205 -0.815,3.773 -2.184,6.621 -4.106,8.546 -1.925,1.921 -4.589,3.142 -7.991,3.663 C 38.103,-0.26 33.663,0 28.189,0 Z"
             style="fill:#ffffff;fill-opacity:1;fill-rule:nonzero;stroke:none"
             id="path28" />
        </g>
        <g
           id="g30"
           transform="translate(906.7344,222.1934)">
          <path
             d="M 0,0 -1.775,-35.294 H -15.76 c -0.149,4.44 -0.409,8.065 -0.776,10.877 -0.371,2.81 -1.187,4.994 -2.443,6.548 -1.258,1.554 -3.107,2.626 -5.548,3.219 -2.442,0.589 -5.737,0.887 -9.878,0.887 H -61.708 V -136.29 c 0,-4.738 0.223,-8.474 0.666,-11.21 0.444,-2.74 1.405,-4.811 2.886,-6.215 1.477,-1.408 3.625,-2.369 6.437,-2.886 2.81,-0.52 6.51,-0.777 11.099,-0.777 v -10.433 c -4.294,0.15 -9.361,0.223 -15.205,0.223 h -18.091 c -6.215,0 -12.284,-0.035 -18.201,-0.111 -5.921,-0.073 -10.953,-0.184 -15.095,-0.333 v 10.654 c 4.585,0 8.248,0.257 10.988,0.777 2.737,0.517 4.845,1.478 6.327,2.886 1.477,1.404 2.475,3.475 2.996,6.215 0.516,2.736 0.777,6.472 0.777,11.21 v 122.527 h -23.308 c -4.439,0 -8.028,-0.259 -10.765,-0.776 -2.74,-0.521 -4.959,-1.52 -6.659,-2.997 -1.703,-1.481 -3.108,-3.662 -4.217,-6.548 -1.111,-2.886 -2.186,-6.625 -3.219,-11.21 H -148.72 L -145.612,0 c 9.912,-0.444 21.232,-0.742 33.961,-0.888 12.725,-0.149 25.711,-0.222 38.956,-0.222 13.242,0 26.192,0.111 38.844,0.333 C -21.198,-0.556 -9.916,-0.299 0,0"
             style="fill:#ffffff;fill-opacity:1;fill-rule:nonzero;stroke:none"
             id="path32" />
        </g>
        <g
           id="g34"
           transform="translate(942.3135,127.8555)">
          <path
             d="M 0,0 H 40.177 L 20.422,59.044 Z m -4.217,-12.431 -10.432,-30.853 c -1.332,-3.552 -2.22,-6.586 -2.664,-9.101 -0.444,-2.518 -0.15,-4.551 0.887,-6.104 1.034,-1.554 2.848,-2.702 5.439,-3.441 2.588,-0.742 6.326,-1.11 11.21,-1.11 v -10.433 c -4.145,0.15 -8.696,0.223 -13.652,0.223 h -15.093 -14.984 c -4.884,0 -9.399,-0.073 -13.54,-0.223 v 10.877 c 4.141,0 7.509,0.333 10.1,0.999 2.587,0.666 4.734,1.811 6.436,3.441 1.7,1.627 3.181,3.773 4.44,6.437 1.256,2.663 2.626,6.139 4.106,10.433 l 49.278,141.617 h 12.43 L 77.69,-41.73 c 1.478,-4.44 2.92,-7.992 4.329,-10.655 1.404,-2.664 3.069,-4.738 4.994,-6.216 1.922,-1.48 4.179,-2.552 6.77,-3.217 2.587,-0.666 5.806,-1.222 9.655,-1.665 v -9.99 c -4.144,0.15 -8.955,0.223 -14.427,0.223 h -16.87 -16.87 c -5.476,0 -10.287,-0.073 -14.428,-0.223 v 10.433 c 4.884,0 8.619,0.223 11.21,0.666 2.587,0.444 4.328,1.332 5.216,2.664 0.887,1.332 0.999,3.329 0.333,5.993 -0.666,2.664 -1.742,6.288 -3.219,10.877 l -10.21,30.409 z"
             style="fill:#ffffff;fill-opacity:1;fill-rule:nonzero;stroke:none"
             id="path36" />
        </g>
        <g
           id="g38"
           transform="translate(1166.2822,148.9424)">
          <path
             d="m 0,0 h 91.896 v 44.173 c 0,4.29 -0.188,7.657 -0.555,10.099 -0.371,2.442 -1.259,4.291 -2.664,5.549 -1.407,1.256 -3.517,2.033 -6.326,2.331 -2.813,0.295 -6.659,0.444 -11.542,0.444 v 10.655 c 3.551,-0.149 8.434,-0.261 14.65,-0.333 6.215,-0.076 12.614,-0.111 19.2,-0.111 6.583,0 12.874,0.035 18.867,0.111 5.994,0.072 10.618,0.184 13.873,0.333 V 62.596 c -4.882,0 -8.694,-0.187 -11.43,-0.555 -2.74,-0.371 -4.849,-1.186 -6.326,-2.441 -1.482,-1.259 -2.408,-3.108 -2.776,-5.55 -0.371,-2.442 -0.554,-5.882 -0.554,-10.321 V -63.039 c 0,-4.738 0.221,-8.512 0.666,-11.32 0.444,-2.814 1.404,-4.922 2.885,-6.327 1.478,-1.408 3.586,-2.331 6.326,-2.775 2.737,-0.443 6.472,-0.666 11.209,-0.666 v -10.876 c -3.255,0.149 -7.879,0.298 -13.873,0.443 -5.993,0.15 -12.319,0.223 -18.978,0.223 -6.659,0 -13.062,-0.073 -19.2,-0.223 -6.143,-0.145 -10.988,-0.294 -14.539,-0.443 v 10.876 c 4.734,0 8.507,0.257 11.32,0.777 2.809,0.517 4.918,1.516 6.326,2.996 1.405,1.478 2.331,3.552 2.774,6.216 0.445,2.663 0.667,6.215 0.667,10.655 v 49.5 H 0 v -49.5 c 0,-4.589 0.184,-8.213 0.555,-10.876 0.368,-2.664 1.256,-4.739 2.664,-6.216 1.404,-1.481 3.512,-2.442 6.326,-2.886 2.809,-0.443 6.583,-0.666 11.32,-0.666 v -10.654 c -3.406,0.149 -8.14,0.26 -14.206,0.333 -6.069,0.076 -12.395,0.111 -18.978,0.111 -6.587,0 -12.913,-0.073 -18.979,-0.223 -6.069,-0.145 -10.877,-0.294 -14.429,-0.443 v 10.876 c 4.735,0 8.508,0.257 11.322,0.777 2.808,0.517 4.956,1.516 6.436,2.996 1.478,1.478 2.443,3.587 2.886,6.327 0.444,2.737 0.666,6.399 0.666,10.988 v 105.88 c 0,4.585 -0.222,8.175 -0.666,10.765 -0.443,2.587 -1.408,4.55 -2.886,5.882 -1.48,1.332 -3.628,2.182 -6.436,2.553 -2.814,0.368 -6.587,0.555 -11.322,0.555 v 10.877 c 3.404,-0.298 8.137,-0.483 14.207,-0.555 6.066,-0.076 12.392,-0.111 18.979,-0.111 6.582,0 12.946,0.035 19.089,0.111 6.139,0.072 10.911,0.257 14.317,0.555 V 62.596 c -4.737,0 -8.473,-0.222 -11.21,-0.665 C 6.916,61.486 4.845,60.633 3.44,59.378 2.032,58.118 1.109,56.231 0.666,53.718 0.222,51.199 0,47.797 0,43.507 Z"
             style="fill:#ffffff;fill-opacity:1;fill-rule:nonzero;stroke:none"
             id="path40" />
        </g>
        <g
           id="g42"
           transform="translate(1456.7363,132.2949)">
          <path
             d="m 0,0 c 0,5.771 -0.555,11.799 -1.665,18.091 -1.109,6.288 -2.74,12.43 -4.883,18.424 -2.147,5.993 -4.848,11.687 -8.102,17.091 -3.257,5.4 -7.069,10.134 -11.432,14.207 -4.366,4.068 -9.288,7.324 -14.761,9.766 -5.476,2.442 -11.542,3.662 -18.201,3.662 -7.991,0 -15.316,-1.703 -21.976,-5.105 -6.659,-3.406 -12.395,-8.14 -17.203,-14.206 -4.809,-6.07 -8.545,-13.395 -11.209,-21.975 -2.664,-8.584 -3.995,-18.057 -3.995,-28.412 0,-8.585 1.255,-17.647 3.774,-27.191 2.513,-9.545 6.249,-18.314 11.209,-26.304 4.956,-7.991 11.133,-14.615 18.535,-19.866 7.397,-5.255 15.981,-7.881 25.748,-7.881 8.581,0 16.204,1.7 22.863,5.105 6.659,3.403 12.319,8.175 16.981,14.318 4.661,6.138 8.213,13.463 10.654,21.975 C -1.221,-19.794 0,-10.359 0,0 m -35.959,-79.021 c 3.253,-4.291 7.026,-7.916 11.32,-10.877 4.29,-2.958 9.212,-5.251 14.761,-6.881 5.55,-1.627 11.876,-2.664 18.979,-3.108 7.103,-0.444 15.167,-0.221 24.195,0.666 v -9.766 c -10.066,-2.072 -19.905,-3.07 -29.523,-2.997 -9.621,0.076 -18.683,1.22 -27.191,3.44 -8.512,2.22 -16.353,5.626 -23.529,10.211 -7.179,4.589 -13.207,10.509 -18.09,17.758 -10.51,0.742 -20.349,3.552 -29.523,8.434 -9.176,4.884 -17.168,11.21 -23.972,18.979 -6.809,7.769 -12.209,16.647 -16.204,26.637 -3.995,9.988 -5.993,20.456 -5.993,31.409 0,10.8 2.032,21.492 6.104,32.074 4.068,10.578 9.801,20.012 17.202,28.302 7.399,8.285 16.277,14.982 26.637,20.088 10.356,5.105 21.898,7.658 34.627,7.658 11.543,0 22.42,-2.369 32.63,-7.104 10.211,-4.737 19.09,-11.063 26.636,-18.978 7.547,-7.918 13.502,-17.092 17.87,-27.525 4.362,-10.432 6.547,-21.346 6.547,-32.74 0,-9.472 -1.519,-18.833 -4.55,-28.079 -3.035,-9.25 -7.326,-17.758 -12.874,-25.527 -5.549,-7.769 -12.247,-14.504 -20.089,-20.199 -7.845,-5.699 -16.502,-9.656 -25.97,-11.875"
             style="fill:#ffffff;fill-opacity:1;fill-rule:nonzero;stroke:none"
             id="path44" />
        </g>
      </g>
    </g>
  </g>
</svg>
